# xmcd
#
# Track frame offsets: 
#        150
#        12233
#        24022
#        46544
#        76594
#        118635
#        120969
#        165695
#        180675
#        209827
#        214216
#
# Disc length: 3221 seconds
#
# Revision: 0
# Processed by: cddbd v1.5.2PL0 Copyright (c) Steve Scherf et al.
# Submitted via: ExactAudioCopy v0.99pb5
#
DISCID=800c930b
DTITLE=The Allman Brothers - Beacon Theater 3-9-2009 (Disc1)
DYEAR=2009
DGENRE=Blues
TTITLE0=Little Martha
TTITLE1=Don't Want You No More
TTITLE2=It's Not My Cross To Bear
TTITLE3=I walk On Gilded Splinters
TTITLE4=The Same Thing
TTITLE5=Stage Banter
TTITLE6=New Intrumental
TTITLE7=Midnight Rider
TTITLE8=Leave My Blues At Home
TTITLE9=Announcements
TTITLE10=Leavin' Truck (feat Taj Mahal)
EXTD=
EXTT0=
EXTT1=
EXTT2=
EXTT3=
EXTT4=
EXTT5=
EXTT6=
EXTT7=
EXTT8=
EXTT9=
EXTT10=
PLAYORDER=
